#!OML:ASF E:/inclinewalkrobotboard/Project1/Captureday1/Session1/subject1.ASF
:FULLY-SPECIFIED
:DEGREES
201
root 0 0 0 1.3139446165369684 -3.8539440545165125 1.8326510017631845
lowerback 12.169265286706299 0.8577044850683255 -0.05984860703086026
upperback -4.386090962165292 1.0950392170548287 -0.5683881205849831
thorax -11.618859432307282 0.49754176560783653 -0.8203297960159199
lowerneck -6.010281869251623 1.5941623610274271 4.463803620220068
upperneck 18.388506639120273 3.0994149960078756 -8.19725999600712
head 6.743641224438475 1.1344633295826094 -3.1432217101934397
rclavicle 1.932309113627969E-15 -4.03469330610586E-16
rhumerus 21.253291407899987 15.771827811629729 -47.63767980209671
rradius 73.6470129112571
rwrist 26.822782756011684
rhand -34.660519368461415 -57.66368605744586
rfingers 7.125020000000014
rthumb -7.801416804457752 -87.60788257543109
lclavicle -4.360162243201519E-16 -1.019494532342628E-15
lhumerus 22.124257975095 -12.529093446590744 43.86414416230144
lradius 71.11751869075533
lwrist -23.560653510337254
lhand -44.621617553024585 -71.13285263435242
lfingers 7.125020000000031
lthumb -17.401129474802612 -41.834848193092355
rfemur -25.231271774247332 -2.2181490791264364 17.200789579840627
rtibia 54.19636723701745
rfoot -29.69905281998499 -16.767251493951
rtoes -18.432702139908944
lfemur -26.488855223316172 2.2908805102395444 -17.62769387253253
ltibia 53.32996084129017
lfoot -32.60034563036359 -2.6129240853029394
ltoes -21.017223992261314
202
root 0 0 0 1.3138922056490556 -3.8536595884165434 1.8326517315810684
lowerback 12.16926431097144 0.8576628939978629 -0.05989405302262096
upperback -4.386158979557648 1.0949758411129689 -0.5683984375778838
thorax -11.618940021094605 0.4975100617740768 -0.8203019327625816
lowerneck -6.010459514204164 1.5942602062132887 4.4638527006139865
upperneck 18.38873179624168 3.0995362734091856 -8.197305174489934
head 6.743737382990879 1.1345127126734318 -3.1432287796333034
rclavicle 1.9322631954162525E-15 -4.032745863465374E-16
rhumerus 21.253152752634776 15.771655628288686 -47.637704211143316
rradius 73.64692216904447
rwrist 26.822778420824022
rhand -34.66062684297175 -57.66374081632634
rfingers 7.125020000000014
rthumb -7.801514701575989 -87.60789825597318
lclavicle -4.3762252080705385E-16 -1.0202358959320413E-15
lhumerus 22.124550461860068 -12.529296860826788 43.86398759649475
lradius 71.11785819545688
lwrist -23.560729479174057
lhand -44.62162905598186 -71.13318972361874
lfingers 7.125020000000031
lthumb -17.401134749061516 -41.835156679439464
rfemur -25.231158132200914 -2.2181008089047545 17.20089091621347
rtibia 54.19627690033137
rfoot -29.69885105542307 -16.767175481829007
rtoes -18.433126396491115
lfemur -26.48881811340219 2.2907874469777254 -17.62758129014288
ltibia 53.3298885253036
lfoot -32.60035741032134 -2.6134741575072327
ltoes -21.01851859165354
203
root 0 0 0 1.313839436194859 -3.853445689424126 1.8326083091992214
lowerback 12.16924672983404 0.8576415848667988 -0.05987931775709199
upperback -4.386189118213384 1.0949501134383772 -0.5683938921169188
thorax -11.618966623235494 0.4974962983649888 -0.8203039088877815
lowerneck -6.010520233259068 1.5942990182778527 4.463896470785692
upperneck 18.38883752062571 3.099583705393723 -8.197340861116414
head 6.7437787560591484 1.1345315727847556 -3.1432431105397676
rclavicle 1.932108254121402E-15 -4.031451089373464E-16
rhumerus 21.25317736069283 15.771622433125914 -47.63761512353353
rradius 73.64695851962928
rwrist 26.822832537241638
rhand -34.66074561835249 -57.663928931275834
rfingers 7.125020000000014
rthumb -7.801629214067548 -87.60808839086789
lclavicle -4.3726589171125994E-16 -1.019576122622965E-15
lhumerus 22.124606247513213 -12.529346816516059 43.863987020869224
lradius 71.11791539714247
lwrist -23.560705527654072
lhand -44.62165394610672 -71.133277879227
lfingers 7.125020000000031
lthumb -17.40116304150299 -41.835266012108235
rfemur -25.23111650974071 -2.2180285194492093 17.200907037512376
rtibia 54.19605757375563
rfoot -29.698901682845744 -16.76722167881051
rtoes -18.433123042521608
lfemur -26.48841608157744 2.2908341184005994 -17.62732857575333
ltibia 53.330037866941296
lfoot -32.599687350379895 -2.61406374851519
ltoes -21.019928904799578
204
root 0 0 0 1.313809674689213 -3.8533924884015844 1.8325937507467027
lowerback 12.16923973637746 0.8576363372469169 -0.05987376097386421
upperback -4.386196833539444 1.0949437858286124 -0.5683901178489347
thorax -11.6189723374989 0.49749284734034327 -0.8203023825231486
lowerneck -6.010524459680939 1.5943115511543218 4.463914268131863
upperneck 18.388863175165415 3.099600550846728 -8.19736269600367
head 6.7437866612530755 1.134537918460401 -3.1432512178277774
rclavicle 1.9321220311269438E-15 -4.030588234610758E-16
rhumerus 21.2531566691153 15.771584715719746 -47.63757876807975
rradius 73.64694849330077
rwrist 26.82287516234202
rhand -34.66075682388676 -57.66396888761657
rfingers 7.125020000000014
rthumb -7.801639879858362 -87.60813013638672
lclavicle -4.3730587443248055E-16 -1.0194964114528482E-15
lhumerus 22.124633312169742 -12.529362051600538 43.86397632120571
lradius 71.11794445781563
lwrist -23.560711143694625
lhand -44.62166535016541 -71.13334238862873
lfingers 7.125020000000031
lthumb -17.401173755964884 -41.83532874481976
rfemur -25.23107631668764 -2.218037813032767 17.200942428862206
rtibia 54.19606100489263
rfoot -29.69887192462687 -16.767216888240515
rtoes -18.433064926625445
lfemur -26.48835023541094 2.2908746199663907 -17.627295209349203
ltibia 53.330224011069035
lfoot -32.59935449481381 -2.614365990270512
ltoes -21.020226023285574
205
root 0 0 0 1.3136407648387558 -3.855764344720189 1.83293046769978
lowerback 12.16908919625011 0.8579238432558272 -0.060198287249254245
upperback -4.385621817232009 1.0952651283787245 -0.5682620497198528
thorax -11.618206223259469 0.49768620378565603 -0.820031996086463
lowerneck -6.009073408038051 1.593619833658172 4.46336166569828
upperneck 18.38726394522599 3.0987925606110016 -8.197020898063736
head 6.743085621122319 1.1341832920559414 -3.1431506012025103
rclavicle 1.9194607514929056E-15 -3.9719655214604813E-16
rhumerus 21.25252341219486 15.771345530342936 -47.63865911523418
rradius 73.64592386994761
rwrist 26.822184320207725
rhand -34.65998506653321 -57.6622015406715
rfingers 7.125020000000014
rthumb -7.800617770552215 -87.60619394083534
lclavicle -4.429355945423158E-16 -1.0185757180314902E-15
lhumerus 22.12627104555711 -12.527883169875546 43.863684908531724
lradius 71.11879718928348
lwrist -23.560901810185207
lhand -44.621814123974836 -71.1355861859064
lfingers 7.125020000000031
lthumb -17.40131631912967 -41.83857560601594
rfemur -25.23204821439119 -2.2171651920933986 17.201739024698064
rtibia 54.19393426473222
rfoot -29.696169446807495 -16.76849405958295
rtoes -18.430575091663414
lfemur -26.495082372209662 2.291797629646071 -17.631347030993997
ltibia 53.32991144060919
lfoot -32.59990699194953 -2.6125052970921656
ltoes -21.00692530672048
